# xmcd
#
# Track frame offsets: 
#        150
#        17345
#        39150
#        54880
#        76507
#        98710
#        118250
#        138340
#        162757
#        175882
#        188562
#        211930
#
# Disc length: 3065 seconds
#
# Revision: 0
# Processed by: cddbd v1.4PL0 Copyright (c) Steve Scherf et al.
# Submitted via: ExactAudioCopy v0.90a11
#
DISCID=830bf70c
DTITLE=Dave Hole - Under the Spell
DYEAR=1900
DGENRE=
TTITLE0=Short Memory
TTITLE1=Run With Me
TTITLE2=Blues Is The Truth
TTITLE3=Holding Pattern
TTITLE4=Bird's Egg Blues
TTITLE5=More Love, Less Attitude
TTITLE6=Yes Or No
TTITLE7=Demolition Man
TTITLE8=Chicken Stuff
TTITLE9=Lost At Sea
TTITLE10=Cold Women With Warm Hearts
TTITLE11=Don't Say Goodbye
EXTD=
EXTT0=
EXTT1=
EXTT2=
EXTT3=
EXTT4=
EXTT5=
EXTT6=
EXTT7=
EXTT8=
EXTT9=
EXTT10=
EXTT11=
PLAYORDER=
